<?xml version="1.0" encoding="UTF-8" standalone="no"?>
<!-- Created with Inkscape (http://www.inkscape.org/) -->

<svg
   xmlns:dc="http://purl.org/dc/elements/1.1/"
   xmlns:cc="http://creativecommons.org/ns#"
   xmlns:rdf="http://www.w3.org/1999/02/22-rdf-syntax-ns#"
   xmlns:svg="http://www.w3.org/2000/svg"
   xmlns="http://www.w3.org/2000/svg"
   xmlns:sodipodi="http://sodipodi.sourceforge.net/DTD/sodipodi-0.dtd"
   xmlns:inkscape="http://www.inkscape.org/namespaces/inkscape"
   width="119.15314"
   height="83.718102"
   id="svg2"
   version="1.1"
   inkscape:version="0.48.0 r9654"
   sodipodi:docname="jolira.svg">
  <defs
     id="defs4" />
  <sodipodi:namedview
     id="base"
     pagecolor="#ffffff"
     bordercolor="#666666"
     borderopacity="1.0"
     inkscape:pageopacity="0.0"
     inkscape:pageshadow="2"
     inkscape:zoom="1"
     inkscape:cx="67.048097"
     inkscape:cy="-50.918972"
     inkscape:document-units="px"
     inkscape:current-layer="g3012"
     showgrid="false"
     inkscape:window-width="745"
     inkscape:window-height="695"
     inkscape:window-x="0"
     inkscape:window-y="364"
     inkscape:window-maximized="0"
     fit-margin-top="0"
     fit-margin-left="0"
     fit-margin-right="0"
     fit-margin-bottom="0" />
  <metadata
     id="metadata7">
    <rdf:RDF>
      <cc:Work
         rdf:about="">
        <dc:format>image/svg+xml</dc:format>
        <dc:type
           rdf:resource="http://purl.org/dc/dcmitype/StillImage" />
        <dc:title />
      </cc:Work>
    </rdf:RDF>
  </metadata>
  <g
     inkscape:label="Layer 1"
     inkscape:groupmode="layer"
     id="layer1"
     transform="translate(-307.9519,-397.72511)">
    <g
       transform="translate(275.61164,373.41101)"
       inkscape:label="JFKBusinessCard"
       id="g3012">
      <g
         transform="matrix(0.7789937,0,0,1.2837075,-136.23999,-110.59415)"
         id="g3018">
        <g
           id="g3020">
          <path
             id="path3022"
             style="fill:#000000;fill-opacity:1;fill-rule:nonzero;stroke:none"
             d="m 230.95451,105.45959 c -1.63089,0.10198 -2.80307,0.91742 -3.51657,2.44631 -0.3058,0.50969 -0.45869,1.0703 -0.45868,1.68183 l 0,0.76447 c -1e-5,1.42706 0.7135,2.54828 2.14052,3.36367 1.427,0.81548 2.75208,0.81548 3.97524,0 1.427,-0.81539 2.08954,-1.93661 1.98763,-3.36367 l 0,-0.76447 c 0.10191,-1.12117 -0.25484,-2.14047 -1.07026,-3.05788 -0.81545,-0.71346 -1.83474,-1.07021 -3.05788,-1.07026 m 0,14.06626 c -1.63089,4e-5 -2.80307,0.81547 -3.51657,2.44631 -0.3058,0.40775 -0.45869,0.96836 -0.45868,1.68183 l 0,34.70697 c -1e-5,1.42701 -0.20387,2.4463 -0.61158,3.05788 -0.81544,0.91736 -2.34438,1.12122 -4.58682,0.61158 -1.63087,-0.50965 -3.05789,-0.20386 -4.28104,0.91737 -1.01929,1.12121 -1.32508,2.44629 -0.91736,3.97524 0.40772,1.52893 1.32508,2.4463 2.75209,2.7521 l 3.05788,0.61157 c 4.48489,0.20385 7.89952,-1.0193 10.24391,-3.66946 1.63086,-2.14052 2.44629,-4.89261 2.44631,-8.25628 l 0,-34.70697 c 0.10191,-1.12119 -0.25484,-2.08952 -1.07026,-2.90499 -0.81545,-0.81539 -1.83474,-1.22311 -3.05788,-1.22315"
             inkscape:connector-curvature="0" />
        </g>
        <g
           id="g3024">
          <path
             id="path3026"
             style="fill:#d8b028;fill-opacity:1;fill-rule:nonzero;stroke:none"
             d="m 258.13383,119.98453 c -3.0579,4e-5 -5.80999,0.86644 -8.25629,2.5992 -4.58683,3.05792 -6.88024,8.20535 -6.88023,15.44231 -0.10194,6.82928 1.78376,11.87479 5.65708,15.13652 2.75208,2.03859 5.91189,3.05788 9.47944,3.05788 3.15979,0 6.01381,-0.81543 8.56207,-2.4463 4.58679,-3.05788 6.8802,-8.30724 6.88023,-15.7481 -3e-5,-6.93117 -2.29344,-12.12957 -6.88023,-15.5952 -2.44633,-1.63084 -5.30035,-2.44627 -8.56207,-2.44631 m -7.18603,18.65309 0,-0.61158 c -1e-5,-4.38294 1.12121,-7.28793 3.36367,-8.71496 1.22314,-0.81541 2.49726,-1.22313 3.82236,-1.22316 4.99451,3e-5 7.49178,3.31273 7.49181,9.93812 -3e-5,6.82928 -2.4973,10.24392 -7.49181,10.24391 -4.7907,1e-5 -7.18604,-3.21077 -7.18603,-9.63233"
             inkscape:connector-curvature="0" />
        </g>
        <g
           id="g3028">
          <path
             id="path3030"
             style="fill:#000000;fill-opacity:1;fill-rule:nonzero;stroke:none"
             d="m 288.43912,110.3522 c -2e-5,-1.83468 -0.81545,-3.1088 -2.44631,-3.82235 -0.40773,-0.20381 -0.91737,-0.30574 -1.52894,-0.30579 -1.63088,5e-5 -2.85403,0.76452 -3.66946,2.29341 -0.20386,0.5097 -0.30579,1.12127 -0.30579,1.83473 l 0,41.893 c 0,1.63087 0.76447,2.80306 2.29341,3.51656 0.50964,0.20386 1.07026,0.30579 1.68184,0.30579 1.73279,0 2.95594,-0.76447 3.66946,-2.29341 0.20385,-0.50965 0.30577,-1.01929 0.30579,-1.52894 l 0,-41.893"
             inkscape:connector-curvature="0" />
        </g>
        <g
           id="g3032">
          <path
             id="path3034"
             style="fill:#000000;fill-opacity:1;fill-rule:nonzero;stroke:none"
             d="m 299.53708,105.1538 c -1.73281,0.20391 -2.85403,1.12128 -3.36367,2.7521 -0.20387,0.40776 -0.30579,0.86644 -0.30579,1.37604 l 0,0.61158 c 0,1.52899 0.66254,2.70117 1.98762,3.51657 1.32508,0.81547 2.70112,0.81547 4.12815,0 1.32507,-0.8154 1.98761,-1.98758 1.98762,-3.51657 l 0,-0.61158 c -10e-6,-1.2231 -0.4587,-2.29336 -1.37605,-3.21077 -0.91737,-0.81539 -1.93667,-1.12117 -3.05788,-0.91737 m 0.30579,14.67784 c -1.73281,4e-5 -2.905,0.81547 -3.51657,2.44631 -0.30579,0.50968 -0.45868,1.07029 -0.45868,1.68183 l 0,28.13252 c 0,1.52895 0.66254,2.70113 1.98762,3.51657 1.32508,0.81543 2.70112,0.81543 4.12815,0 1.32507,-0.81544 1.98761,-1.98762 1.98762,-3.51657 l 0,-28.13252 c -10e-6,-1.12119 -0.40773,-2.08952 -1.22315,-2.90499 -0.71352,-0.8154 -1.68185,-1.22311 -2.90499,-1.22315"
             inkscape:connector-curvature="0" />
        </g>
        <g
           id="g3036">
          <path
             id="path3038"
             style="fill:#000000;fill-opacity:1;fill-rule:nonzero;stroke:none"
             d="m 324.85062,119.83164 c 5.70802,4e-5 9.98905,2.4973 12.8431,7.49181 0.81541,1.52897 0.81541,3.00695 0,4.43393 -0.81546,1.32511 -2.14054,1.93668 -3.97524,1.83473 -1.42704,-0.20383 -2.54826,-1.07023 -3.36368,-2.5992 -0.61159,-1.42698 -1.52896,-2.29338 -2.75209,-2.5992 -0.6116,-0.20383 -1.52896,-0.30576 -2.75209,-0.30579 -2.54825,3e-5 -4.28105,0.71354 -5.1984,2.14052 -0.10195,0.20389 -0.25484,0.45871 -0.45869,0.76447 -0.50966,1.12125 -0.81544,2.29344 -0.91736,3.51657 l 0,17.58282 c -10e-6,1.52895 -0.61159,2.70113 -1.83473,3.51657 -1.42702,0.81543 -2.80307,0.81543 -4.12814,0 -1.32509,-0.81544 -1.98763,-1.98762 -1.98763,-3.51657 l 0,-17.58282 c 0.50965,-7.0331 3.61849,-11.56896 9.32655,-13.60758 1.63085,-0.71347 3.36365,-1.07022 5.1984,-1.07026"
             inkscape:connector-curvature="0" />
        </g>
        <g
           id="g3040">
          <path
             id="path3042"
             style="fill:#000000;fill-opacity:1;fill-rule:nonzero;stroke:none"
             d="m 369.3655,151.63362 0,-15.5952 c -0.30581,-4.79066 -1.98765,-8.56204 -5.0455,-11.31417 -0.81546,-0.71347 -1.68186,-1.32505 -2.5992,-1.83473 -1.93668,-1.01926 -3.87334,-1.5289 -5.80998,-1.52894 -4.58684,4e-5 -8.30726,1.93669 -11.16127,5.80998 -3.15982,4.68878 -4.02622,10.39682 -2.5992,17.12414 0.91736,4.28104 3.05787,7.49182 6.42155,9.63233 0.81543,0.50965 1.68183,0.96833 2.5992,1.37605 3.77137,1.22315 7.23697,1.01929 10.3968,-0.61158 0.61156,1.63087 1.83471,2.49727 3.66946,2.5992 1.22313,0.10193 2.24242,-0.30579 3.05789,-1.22315 0.71347,-0.91736 1.07022,-2.39534 1.07025,-4.43393 m -13.76047,-22.01676 c 2.03857,3e-5 3.61848,0.91739 4.73972,2.7521 0.71348,1.3251 1.01927,4.33202 0.91737,9.02075 -0.30582,3.36369 -1.478,5.45324 -3.51657,6.26866 -0.71352,0.20387 -1.68185,0.25483 -2.90499,0.1529 -2.0386,-0.30578 -3.46561,-1.42701 -4.28103,-3.36367 -0.20387,-0.40771 -0.3058,-0.81543 -0.30579,-1.22316 -0.81545,-3.15979 -0.81545,-6.26864 0,-9.32654 0.4077,-2.03856 1.63085,-3.36365 3.66946,-3.97525 0.61156,-0.20383 1.17217,-0.30576 1.68183,-0.30579"
             inkscape:connector-curvature="0" />
        </g>
      </g>
      <g
         transform="matrix(1.0161476,0,0,0.984109,-136.23999,-110.59415)"
         id="g3044">
        <g
           id="g3046">
          <path
             id="path3048"
             style="fill:#000000;fill-opacity:1;fill-rule:nonzero;stroke:none"
             d="m 186.48747,210.24233 -1.12259,3.04411 2.24928,0 -1.12669,-3.04411 m -0.46706,-0.81532 0.93823,0 2.33122,6.1169 -0.86038,0 -0.5572,-1.56917 -2.75732,0 -0.5572,1.56917 -0.87267,0 2.33532,-6.1169"
             inkscape:connector-curvature="0" />
        </g>
        <g
           id="g3050">
          <path
             id="path3052"
             style="fill:#000000;fill-opacity:1;fill-rule:nonzero;stroke:none"
             d="m 193.16567,213.1963 c 0,-0.54627 -0.11335,-0.96963 -0.34005,-1.27008 -0.22398,-0.30045 -0.53945,-0.45067 -0.94642,-0.45068 -0.40425,1e-5 -0.71972,0.15023 -0.94642,0.45068 -0.22398,0.30045 -0.33596,0.72381 -0.33596,1.27008 0,0.54355 0.11198,0.96554 0.33596,1.26599 0.2267,0.30045 0.54217,0.45068 0.94642,0.45068 0.40697,0 0.72244,-0.15023 0.94642,-0.45068 0.2267,-0.30045 0.34005,-0.72244 0.34005,-1.26599 m 0.75386,1.77812 c -1e-5,0.78118 -0.17345,1.36159 -0.52033,1.74125 -0.34688,0.38239 -0.87814,0.57359 -1.59375,0.57359 -0.26495,0 -0.51487,-0.0205 -0.74976,-0.0615 -0.2349,-0.0382 -0.46297,-0.0983 -0.68421,-0.18027 l 0,-0.73337 c 0.22124,0.12018 0.43975,0.20895 0.65553,0.26631 0.21578,0.0574 0.43565,0.086 0.65962,0.086 0.49438,0 0.86448,-0.12974 1.11031,-0.38922 0.24582,-0.25675 0.36873,-0.64597 0.36873,-1.16766 l 0,-0.37283 c -0.15569,0.2704 -0.35508,0.47252 -0.59817,0.60636 -0.24309,0.13384 -0.53398,0.20075 -0.87267,0.20075 -0.56266,0 -1.01607,-0.21441 -1.36022,-0.64323 -0.34416,-0.42883 -0.51623,-0.99695 -0.51623,-1.70438 0,-0.71015 0.17207,-1.27964 0.51623,-1.70847 0.34415,-0.42882 0.79756,-0.64323 1.36022,-0.64323 0.33869,0 0.62958,0.0669 0.87267,0.20075 0.24309,0.13384 0.44248,0.33596 0.59817,0.60636 l 0,-0.69649 0.75386,0 0,4.0192"
             inkscape:connector-curvature="0" />
        </g>
        <g
           id="g3054">
          <path
             id="path3056"
             style="fill:#000000;fill-opacity:1;fill-rule:nonzero;stroke:none"
             d="m 195.47231,210.95522 0.75386,0 0,4.58869 -0.75386,0 0,-4.58869 m 0,-1.78632 0.75386,0 0,0.95461 -0.75386,0 0,-0.95461"
             inkscape:connector-curvature="0" />
        </g>
        <g
           id="g3058">
          <path
             id="path3060"
             style="fill:#000000;fill-opacity:1;fill-rule:nonzero;stroke:none"
             d="m 197.79944,209.1689 0.75386,0 0,6.37501 -0.75386,0 0,-6.37501"
             inkscape:connector-curvature="0" />
        </g>
        <g
           id="g3062">
          <path
             id="path3064"
             style="fill:#000000;fill-opacity:1;fill-rule:nonzero;stroke:none"
             d="m 200.12656,210.95522 0.75386,0 0,4.58869 -0.75386,0 0,-4.58869 m 0,-1.78632 0.75386,0 0,0.95461 -0.75386,0 0,-0.95461"
             inkscape:connector-curvature="0" />
        </g>
        <g
           id="g3066">
          <path
             id="path3068"
             style="fill:#000000;fill-opacity:1;fill-rule:nonzero;stroke:none"
             d="m 203.19935,209.65235 0,1.30287 1.55279,0 0,0.58587 -1.55279,0 0,2.49101 c 0,0.3742 0.0505,0.61456 0.15159,0.72108 0.10379,0.10653 0.31274,0.15979 0.62685,0.15979 l 0.77435,0 0,0.63094 -0.77435,0 c -0.58178,0 -0.98329,-0.10788 -1.20453,-0.32366 -0.22124,-0.21851 -0.33186,-0.61456 -0.33186,-1.18815 l 0,-2.49101 -0.5531,0 0,-0.58587 0.5531,0 0,-1.30287 0.75795,0"
             inkscape:connector-curvature="0" />
        </g>
        <g
           id="g3070">
          <path
             id="path3072"
             style="fill:#000000;fill-opacity:1;fill-rule:nonzero;stroke:none"
             d="m 207.65695,215.97001 c -0.21305,0.54627 -0.42064,0.90271 -0.62275,1.06933 -0.20213,0.16661 -0.47253,0.24992 -0.81122,0.24992 l -0.60227,0 0,-0.63095 0.44248,0 c 0.20759,0 0.36874,-0.0492 0.48346,-0.14749 0.11471,-0.0983 0.24172,-0.3305 0.38102,-0.6965 l 0.1352,-0.34415 -1.85596,-4.51495 0.79892,0 1.43397,3.58901 1.43397,-3.58901 0.79893,0 -2.01575,5.01479"
             inkscape:connector-curvature="0" />
        </g>
        <g
           id="g3074" />
        <g
           id="g3076">
          <path
             id="path3078"
             style="fill:#000000;fill-opacity:1;fill-rule:nonzero;stroke:none"
             d="m 214.13029,209.65235 0,1.30287 1.55278,0 0,0.58587 -1.55278,0 0,2.49101 c 0,0.3742 0.0505,0.61456 0.15159,0.72108 0.10379,0.10653 0.31274,0.15979 0.62685,0.15979 l 0.77434,0 0,0.63094 -0.77434,0 c -0.58178,0 -0.98329,-0.10788 -1.20453,-0.32366 -0.22125,-0.21851 -0.33187,-0.61456 -0.33186,-1.18815 l 0,-2.49101 -0.55311,0 0,-0.58587 0.55311,0 0,-1.30287 0.75795,0"
             inkscape:connector-curvature="0" />
        </g>
        <g
           id="g3080">
          <path
             id="path3082"
             style="fill:#000000;fill-opacity:1;fill-rule:nonzero;stroke:none"
             d="m 218.45678,211.48374 c -0.40425,0 -0.72382,0.15842 -0.95871,0.47525 -0.2349,0.31411 -0.35235,0.74567 -0.35235,1.29467 0,0.54901 0.11608,0.98193 0.34825,1.29877 0.23489,0.31411 0.55583,0.47116 0.96281,0.47116 0.4015,0 0.71971,-0.15842 0.95461,-0.47526 0.23489,-0.31684 0.35234,-0.74839 0.35235,-1.29467 -1e-5,-0.54354 -0.11746,-0.97373 -0.35235,-1.29057 -0.2349,-0.31957 -0.55311,-0.47935 -0.95461,-0.47935 m 0,-0.63914 c 0.65552,0 1.17038,0.21305 1.54459,0.63914 0.37419,0.42609 0.56129,1.01607 0.56129,1.76992 0,0.75113 -0.1871,1.34111 -0.56129,1.76993 -0.37421,0.42609 -0.88907,0.63914 -1.54459,0.63914 -0.65827,0 -1.17449,-0.21305 -1.54869,-0.63914 -0.37147,-0.42882 -0.5572,-1.0188 -0.5572,-1.76993 0,-0.75385 0.18573,-1.34383 0.5572,-1.76992 0.3742,-0.42609 0.89042,-0.63914 1.54869,-0.63914"
             inkscape:connector-curvature="0" />
        </g>
        <g
           id="g3084" />
        <g
           id="g3086">
          <path
             id="path3088"
             style="fill:#000000;fill-opacity:1;fill-rule:nonzero;stroke:none"
             d="m 225.22511,209.65235 0,1.30287 1.55278,0 0,0.58587 -1.55278,0 0,2.49101 c 0,0.3742 0.0505,0.61456 0.15159,0.72108 0.10379,0.10653 0.31274,0.15979 0.62685,0.15979 l 0.77434,0 0,0.63094 -0.77434,0 c -0.58179,0 -0.9833,-0.10788 -1.20454,-0.32366 -0.22124,-0.21851 -0.33186,-0.61456 -0.33186,-1.18815 l 0,-2.49101 -0.5531,0 0,-0.58587 0.5531,0 0,-1.30287 0.75796,0"
             inkscape:connector-curvature="0" />
        </g>
        <g
           id="g3090">
          <path
             id="path3092"
             style="fill:#000000;fill-opacity:1;fill-rule:nonzero;stroke:none"
             d="m 231.58783,212.77431 0,2.7696 -0.75385,0 0,-2.74502 c -1e-5,-0.43429 -0.0847,-0.75932 -0.25402,-0.9751 -0.16935,-0.21577 -0.42337,-0.32366 -0.76205,-0.32367 -0.40698,1e-5 -0.72792,0.12975 -0.96281,0.38922 -0.2349,0.25949 -0.35235,0.6132 -0.35235,1.06114 l 0,2.59343 -0.75795,0 0,-6.37501 0.75795,0 0,2.4992 c 0.18027,-0.27586 0.39195,-0.48208 0.63505,-0.61865 0.24582,-0.13657 0.52851,-0.20485 0.84809,-0.20485 0.52715,0 0.92593,0.16388 1.19634,0.49164 0.2704,0.32504 0.4056,0.80439 0.4056,1.43807"
             inkscape:connector-curvature="0" />
        </g>
        <g
           id="g3094">
          <path
             id="path3096"
             style="fill:#000000;fill-opacity:1;fill-rule:nonzero;stroke:none"
             d="m 237.02462,213.0611 0,0.36874 -3.4661,0 c 0.0328,0.51896 0.18846,0.91501 0.46706,1.18814 0.28133,0.27041 0.67191,0.40561 1.17176,0.40561 0.28952,0 0.56948,-0.0355 0.83989,-0.10652 0.27314,-0.071 0.54354,-0.17754 0.81122,-0.31957 l 0,0.71288 c -0.27041,0.11472 -0.54764,0.20212 -0.8317,0.26221 -0.28407,0.0601 -0.57223,0.0901 -0.86448,0.0901 -0.73201,0 -1.31243,-0.21305 -1.74125,-0.63914 -0.42609,-0.42609 -0.63914,-1.00241 -0.63914,-1.72896 0,-0.75112 0.20212,-1.34656 0.60636,-1.78631 0.40698,-0.44248 0.95462,-0.66372 1.64292,-0.66372 0.61729,0 1.10484,0.19939 1.46265,0.59816 0.36054,0.39606 0.54081,0.9355 0.54081,1.61834 m -0.75386,-0.22124 c -0.005,-0.41243 -0.12155,-0.74156 -0.34825,-0.98739 -0.22397,-0.24582 -0.52169,-0.36873 -0.89315,-0.36873 -0.42064,0 -0.75796,0.11881 -1.01197,0.35644 -0.25129,0.23763 -0.39605,0.57222 -0.43429,1.00378 l 2.68766,-0.004"
             inkscape:connector-curvature="0" />
        </g>
        <g
           id="g3098" />
        <g
           id="g3100">
          <path
             id="path3102"
             style="fill:#000000;fill-opacity:1;fill-rule:nonzero;stroke:none"
             d="m 240.96599,209.42701 3.86761,0 0,0.6965 -3.04001,0 0,1.8109 2.91301,0 0,0.6965 -2.91301,0 0,2.21651 3.11376,0 0,0.69649 -3.94136,0 0,-6.1169"
             inkscape:connector-curvature="0" />
        </g>
        <g
           id="g3104">
          <path
             id="path3106"
             style="fill:#000000;fill-opacity:1;fill-rule:nonzero;stroke:none"
             d="m 250.05735,212.77431 0,2.7696 -0.75386,0 0,-2.74502 c -1e-5,-0.43429 -0.0847,-0.75932 -0.25402,-0.9751 -0.16935,-0.21577 -0.42336,-0.32366 -0.76205,-0.32367 -0.40698,1e-5 -0.72791,0.12975 -0.96281,0.38922 -0.2349,0.25949 -0.35235,0.6132 -0.35234,1.06114 l 0,2.59343 -0.75796,0 0,-4.58869 0.75796,0 0,0.71288 c 0.18026,-0.27586 0.39195,-0.48208 0.63504,-0.61865 0.24582,-0.13657 0.52852,-0.20485 0.84809,-0.20485 0.52715,0 0.92593,0.16388 1.19634,0.49164 0.2704,0.32504 0.4056,0.80439 0.40561,1.43807"
             inkscape:connector-curvature="0" />
        </g>
        <g
           id="g3108">
          <path
             id="path3110"
             style="fill:#000000;fill-opacity:1;fill-rule:nonzero;stroke:none"
             d="m 252.31482,209.65235 0,1.30287 1.55278,0 0,0.58587 -1.55278,0 0,2.49101 c 0,0.3742 0.0505,0.61456 0.15159,0.72108 0.10379,0.10653 0.31274,0.15979 0.62685,0.15979 l 0.77434,0 0,0.63094 -0.77434,0 c -0.58178,0 -0.98329,-0.10788 -1.20453,-0.32366 -0.22124,-0.21851 -0.33186,-0.61456 -0.33186,-1.18815 l 0,-2.49101 -0.5531,0 0,-0.58587 0.5531,0 0,-1.30287 0.75795,0"
             inkscape:connector-curvature="0" />
        </g>
        <g
           id="g3112">
          <path
             id="path3114"
             style="fill:#000000;fill-opacity:1;fill-rule:nonzero;stroke:none"
             d="m 258.78816,213.0611 0,0.36874 -3.4661,0 c 0.0328,0.51896 0.18846,0.91501 0.46706,1.18814 0.28133,0.27041 0.67192,0.40561 1.17176,0.40561 0.28952,0 0.56949,-0.0355 0.83989,-0.10652 0.27314,-0.071 0.54354,-0.17754 0.81122,-0.31957 l 0,0.71288 c -0.27041,0.11472 -0.54764,0.20212 -0.8317,0.26221 -0.28407,0.0601 -0.57223,0.0901 -0.86448,0.0901 -0.73201,0 -1.31242,-0.21305 -1.74125,-0.63914 -0.42609,-0.42609 -0.63914,-1.00241 -0.63914,-1.72896 0,-0.75112 0.20212,-1.34656 0.60637,-1.78631 0.40697,-0.44248 0.95461,-0.66372 1.64292,-0.66372 0.61728,0 1.10483,0.19939 1.46264,0.59816 0.36054,0.39606 0.54081,0.9355 0.54081,1.61834 m -0.75385,-0.22124 c -0.005,-0.41243 -0.12155,-0.74156 -0.34825,-0.98739 -0.22398,-0.24582 -0.5217,-0.36873 -0.89316,-0.36873 -0.42063,0 -0.75796,0.11881 -1.01197,0.35644 -0.25129,0.23763 -0.39605,0.57222 -0.43429,1.00378 l 2.68767,-0.004"
             inkscape:connector-curvature="0" />
        </g>
        <g
           id="g3116">
          <path
             id="path3118"
             style="fill:#000000;fill-opacity:1;fill-rule:nonzero;stroke:none"
             d="m 262.68446,211.65991 c -0.0847,-0.0492 -0.17754,-0.0847 -0.2786,-0.10652 -0.0983,-0.0246 -0.20759,-0.0369 -0.32776,-0.0369 -0.4261,1e-5 -0.75386,0.13931 -0.9833,0.4179 -0.2267,0.27587 -0.34005,0.67329 -0.34005,1.19224 l 0,2.41726 -0.75796,0 0,-4.58869 0.75796,0 0,0.71288 c 0.15842,-0.27859 0.36463,-0.48481 0.61865,-0.61865 0.25402,-0.13657 0.56266,-0.20485 0.92594,-0.20485 0.0519,0 0.10925,0.004 0.17207,0.0123 0.0628,0.005 0.13247,0.015 0.20895,0.0287 l 0.004,0.77434"
             inkscape:connector-curvature="0" />
        </g>
        <g
           id="g3120">
          <path
             id="path3122"
             style="fill:#000000;fill-opacity:1;fill-rule:nonzero;stroke:none"
             d="m 264.21266,214.85561 0,2.43365 -0.75795,0 0,-6.33404 0.75795,0 0,0.69649 c 0.15842,-0.27313 0.35781,-0.47525 0.59817,-0.60636 0.24309,-0.13383 0.53262,-0.20075 0.86858,-0.20075 0.55719,0 1.00924,0.22124 1.35612,0.66372 0.34961,0.44248 0.52442,1.02426 0.52443,1.74534 -10e-6,0.72109 -0.17482,1.30287 -0.52443,1.74535 -0.34688,0.44248 -0.79893,0.66372 -1.35612,0.66372 -0.33596,0 -0.62549,-0.0656 -0.86858,-0.19666 -0.24036,-0.13384 -0.43975,-0.33732 -0.59817,-0.61046 m 2.56476,-1.60195 c 0,-0.55446 -0.11472,-0.98875 -0.34415,-1.30286 -0.22671,-0.31684 -0.53945,-0.47525 -0.93823,-0.47526 -0.39878,1e-5 -0.71289,0.15842 -0.94232,0.47526 -0.22671,0.31411 -0.34006,0.7484 -0.34006,1.30286 0,0.55447 0.11335,0.99012 0.34006,1.30696 0.22943,0.31411 0.54354,0.47116 0.94232,0.47116 0.39878,0 0.71152,-0.15705 0.93823,-0.47116 0.22943,-0.31684 0.34415,-0.75249 0.34415,-1.30696"
             inkscape:connector-curvature="0" />
        </g>
        <g
           id="g3124">
          <path
             id="path3126"
             style="fill:#000000;fill-opacity:1;fill-rule:nonzero;stroke:none"
             d="m 271.46855,211.65991 c -0.0847,-0.0492 -0.17754,-0.0847 -0.2786,-0.10652 -0.0983,-0.0246 -0.20759,-0.0369 -0.32777,-0.0369 -0.42609,1e-5 -0.75386,0.13931 -0.98329,0.4179 -0.2267,0.27587 -0.34006,0.67329 -0.34005,1.19224 l 0,2.41726 -0.75796,0 0,-4.58869 0.75796,0 0,0.71288 c 0.15841,-0.27859 0.36463,-0.48481 0.61865,-0.61865 0.25402,-0.13657 0.56266,-0.20485 0.92593,-0.20485 0.0519,0 0.10926,0.004 0.17208,0.0123 0.0628,0.005 0.13247,0.015 0.20895,0.0287 l 0.004,0.77434"
             inkscape:connector-curvature="0" />
        </g>
        <g
           id="g3128">
          <path
             id="path3130"
             style="fill:#000000;fill-opacity:1;fill-rule:nonzero;stroke:none"
             d="m 272.26747,210.95522 0.75386,0 0,4.58869 -0.75386,0 0,-4.58869 m 0,-1.78632 0.75386,0 0,0.95461 -0.75386,0 0,-0.95461"
             inkscape:connector-curvature="0" />
        </g>
        <g
           id="g3132">
          <path
             id="path3134"
             style="fill:#000000;fill-opacity:1;fill-rule:nonzero;stroke:none"
             d="m 277.51989,211.09042 0,0.71289 c -0.21305,-0.10926 -0.43429,-0.1912 -0.66372,-0.24583 -0.22944,-0.0546 -0.46707,-0.0819 -0.71289,-0.0819 -0.3742,1e-5 -0.65553,0.0574 -0.84399,0.17208 -0.18574,0.11472 -0.2786,0.28679 -0.2786,0.51623 0,0.17481 0.0669,0.31274 0.20075,0.4138 0.13384,0.0983 0.40288,0.19256 0.80712,0.2827 l 0.25812,0.0573 c 0.53534,0.11472 0.915,0.27724 1.13898,0.48755 0.2267,0.20759 0.34005,0.49848 0.34005,0.87268 0,0.42609 -0.16935,0.76341 -0.50803,1.01197 -0.33596,0.24855 -0.79893,0.37283 -1.3889,0.37283 -0.24583,0 -0.50258,-0.0246 -0.77025,-0.0738 -0.26494,-0.0464 -0.54491,-0.11745 -0.83989,-0.21304 l 0,-0.77844 c 0.2786,0.14476 0.5531,0.25401 0.8235,0.32776 0.27041,0.071 0.53808,0.10652 0.80303,0.10652 0.35507,0 0.62821,-0.0601 0.81941,-0.18027 0.19119,-0.12291 0.28679,-0.29498 0.28679,-0.51623 0,-0.20485 -0.0697,-0.3619 -0.20895,-0.47116 -0.13657,-0.10925 -0.43839,-0.21441 -0.90545,-0.31547 l -0.26221,-0.0615 c -0.46706,-0.0983 -0.80439,-0.24855 -1.01197,-0.45067 -0.20759,-0.20485 -0.31138,-0.48482 -0.31138,-0.8399 0,-0.43155 0.15296,-0.76478 0.45887,-0.99968 0.30591,-0.23489 0.7402,-0.35234 1.30287,-0.35234 0.27859,0 0.5408,0.0205 0.78663,0.0614 0.24582,0.041 0.47252,0.10243 0.68011,0.18437"
             inkscape:connector-curvature="0" />
        </g>
        <g
           id="g3136">
          <path
             id="path3138"
             style="fill:#000000;fill-opacity:1;fill-rule:nonzero;stroke:none"
             d="m 282.89523,213.0611 0,0.36874 -3.46611,0 c 0.0328,0.51896 0.18846,0.91501 0.46706,1.18814 0.28133,0.27041 0.67192,0.40561 1.17176,0.40561 0.28952,0 0.56949,-0.0355 0.8399,-0.10652 0.27313,-0.071 0.54354,-0.17754 0.81121,-0.31957 l 0,0.71288 c -0.27041,0.11472 -0.54764,0.20212 -0.8317,0.26221 -0.28406,0.0601 -0.57222,0.0901 -0.86448,0.0901 -0.732,0 -1.31242,-0.21305 -1.74124,-0.63914 -0.4261,-0.42609 -0.63914,-1.00241 -0.63914,-1.72896 0,-0.75112 0.20212,-1.34656 0.60636,-1.78631 0.40697,-0.44248 0.95461,-0.66372 1.64292,-0.66372 0.61728,0 1.10483,0.19939 1.46265,0.59816 0.36053,0.39606 0.5408,0.9355 0.54081,1.61834 m -0.75386,-0.22124 c -0.005,-0.41243 -0.12155,-0.74156 -0.34825,-0.98739 -0.22398,-0.24582 -0.52169,-0.36873 -0.89316,-0.36873 -0.42063,0 -0.75795,0.11881 -1.01197,0.35644 -0.25129,0.23763 -0.39605,0.57222 -0.43429,1.00378 l 2.68767,-0.004"
             inkscape:connector-curvature="0" />
        </g>
      </g>
      <g
         id="g3168"
         transform="translate(-136.23999,-110.59415)" />
      <g
         id="g3178"
         transform="translate(-136.23999,-110.59415)" />
      <g
         id="g3212"
         transform="translate(-136.23999,-110.59415)" />
      <g
         id="g3218"
         transform="translate(-136.23999,-110.59415)" />
      <g
         id="g3256"
         transform="translate(-136.23999,-110.59415)" />
      <g
         id="g3298"
         transform="translate(-136.23999,-110.59415)" />
      <g
         id="g3348"
         transform="translate(-136.23999,-110.59415)" />
      <g
         id="g3358"
         transform="translate(-136.23999,-110.59415)" />
      <g
         id="g3396"
         transform="translate(-136.23999,-110.59415)" />
      <g
         id="g3418"
         transform="translate(-136.23999,-110.59415)" />
      <g
         id="g3432"
         transform="translate(-136.23999,-110.59415)" />
    </g>
  </g>
</svg>
